<svg xmlns="http://www.w3.org/2000/svg" viewBox="0 0 842.79 767.1"><title>logoClip</title>
    <defs>
    <clipPath id="myclip">
        <path d="M89.3,247.72l11.64,39.09,28.82,96.78,37.15,124.75,36.75,123.4L230.86,723l7.32,24.56c2.7,9.06,5.86,17.43,14,23.3,10.9,7.82,26.57,7.64,37.37-.25a33.08,33.08,0,0,0,12.18-17.94c1.1-3.76,2.1-7.56,3.15-11.34l16.82-60.54,27.35-98.45,33.81-121.7,35.8-128.87,33.7-121.34,27.41-98.67L496.7,50.94c1.07-3.85,2.08-7.72,3.21-11.55,1.36-4.63,2.73-6.67,7.18-8.64-1.33.59,1.57-.39,2.2-0.55,2.87-.73-1,0,0.7-0.13,0.64,0,1.29,0,1.94-.06,2-.12.16-0.32,2.14,0.2,0.54,0.14,4,1.43,2.64.77,3.82,1.87,5.53,4.16,6.68,8.34,2.74,9.93,5,20,7.56,30l19.61,77.76L578.42,257.6l32,127L642.82,513l28.92,114.7,21.35,84.66c3.33,13.21,6.6,26.44,10,39.64,4.57,17.76,22.27,29.19,40.39,23.89,12.64-3.69,19.07-13.83,22.9-25.52L786,690.44l35.26-107.79,41.48-126.8,37.76-115.44,24.6-75.19c1.45-4.45,3-8.87,4.37-13.35A32.15,32.15,0,0,0,923,220.94c-10.4-11.92-28.92-14.47-41.95-5.38s-24.91,20.12-37.19,30.09l-84,68.26L656.67,397.78l-90.19,73.3q-23.66,19.23-47.32,38.46c-0.43.35-.85,0.71-1.29,1l-0.18.14c2.11-1.58-1.18.7-1.88,1a12.05,12.05,0,0,1-5,1,11.73,11.73,0,0,1-5-1c-0.41-.18-4.08-2.69-1.88-1l-0.2-.16c-0.43-.33-0.84-0.68-1.26-1q-8-6.59-16.1-13.13l-72.21-58.91L313.63,355.4,216,275.73l-64.55-52.66c-3.43-2.79-6.83-5.62-10.28-8.39-10.26-8.21-22.94-10.37-35-4.74-14.28,6.67-20.85,22.88-16.84,37.77,3.34,12.41,22.64,7.15,19.29-5.32-1.43-5.31-.22-9.16,3.33-12.52,2.77-2.62,7.58-4.09,11.3-2.82a15.92,15.92,0,0,1,5.39,3.07l16.23,13.24L216.69,302l99.45,81.13,97.21,79.3,65.15,53.15c3.74,3.05,7.45,6.15,11.22,9.16,11.67,9.31,27.74,10.92,40.09,1.7,1.44-1.08,2.83-2.22,4.23-3.36l49.08-39.89,90.72-73.73,102-82.89,82.87-67.35L883.55,239l6.48-5.27,1.64-1.34,0.35-.28c-1.9,1.47.77-.48,1.81-1,8-4,18.72,2.92,17.11,12.8a44.2,44.2,0,0,1-1.4,4.46L903.47,267l-26.78,81.87L838.2,466.52,797.39,591.26,763.64,694.41,746.37,747.2a19,19,0,0,1-2,4.81,9.69,9.69,0,0,1-3.64,3.47,17.17,17.17,0,0,1-1.74.91c0.44-.19,1.49-0.49-0.34.06-0.62.19-1.25,0.34-1.88,0.5-1.79.46,0.38,0.06-.7,0.13-4.45.28-7.61-.71-10.29-3.41-1.94-2-2.52-3.63-3.36-6.88-0.4-1.55-.78-3.1-1.17-4.66l-12.84-50.92-23.28-92.32L655.53,481.59,623,352.7,591.89,229.19,565.46,124.38,547.93,54.86c-3.73-14.78-5.74-33-20.7-40.92-18.8-10-40.83.24-46.65,20.26-1.13,3.88-2.17,7.8-3.25,11.69l-16.83,60.6-27.18,97.83L399.91,324.61,364.38,452.53,330.83,573.3l-27.45,98.83-17.25,62.09c-1.17,4.21-2.31,8.42-3.51,12.63-0.87,3-1.68,4.74-3.29,6.42-1.3,1.35-.27.61-1.87,1.52-1.4.8-2.09,1.09-2,1.07-0.64.21-3.42,0.88-2.92,0.81,1.18-.16-0.82,0-1.09,0-0.81,0-1.62,0-2.43,0,1.67,0.12-1.42-.33-2.11-0.51a14,14,0,0,1-1.84-.63c1.45,0.63,0-.12-0.26-0.25a9.51,9.51,0,0,1-4.31-4.17c-1.61-2.74-2.76-7.94-3.93-11.87l-8.06-27.06-28-94.16L183.78,494.88l-36.64-123L119.19,278,108.58,242.4C104.92,230.1,85.61,235.34,89.3,247.72Z" transform="translate(-88.14 -10.08)"/>
    </clipPath>
    </defs>
</svg>
