<svg xmlns="http://www.w3.org/2000/svg" viewBox="0 0 700.35 532.59"><defs><style>.a{fill:none;stroke:#000;stroke-miterlimit:10;stroke-width:10px;}</style></defs><title>newLogo</title><path class="a" d="M224.57,980.22c-6.65-17-3.43-37.17,3.75-53.61,5.78-13.23,14.46-31.66,27.93-38.42,36.67-18.42,12.82,86.84,10.31,97.27-5.71,23.63-11.34,47.68-13.21,72-0.52,6.84-3,20.77,6.93,22.32,13.48,2.09,22.25-25.28,26-34.37,10.35-25.43,13.09-53.59,16.57-80.56" transform="translate(-148.59 -817.95)"/><path class="a" d="M302.64,967.88c0,25.21-6.65,74.43,7.46,96.94,23.44,37.41,54.88-64.87,57.12-74.15,6.08-25.24,10.55-54,6.94-80-1.46-10.51-3.26-22.09-9.62-30.91-11.68-16.22-17.79,3.82-14.56,15.38,6.53,23.36,50.32,8.83,65.21,3.85,42.28-14.13,80.83-37.36,123.34-51,52.93-17,113.87-27.79,169.48-24.39,20.58,1.26,47.47,3.77,60.47,22.58,11.36,16.44-.83,28.8-12.32,40.43" transform="translate(-148.59 -817.95)"/><path class="a" d="M410.6,977.45a59.21,59.21,0,0,0-22.18,19.4c-7.22,10.49-11.82,27.94-8.62,40.35,1.19,4.61,7,8.25,11.43,7.32,5.68-1.2,10.18-6.06,12.9-10.4,4.07-6.5,8.14-14.65,9.86-23a167.92,167.92,0,0,1,4.75-17.56,0.34,0.34,0,0,1,.65.08c1,11.09-4,23.27,4.88,31.38,15.14,13.76,37.13-17.54,44.85-26.62" transform="translate(-148.59 -817.95)"/><path class="a" d="M462,1007.33c15-25,31.26-54.94,30.69-84.92-0.09-4.84-1.35-11.32-7.84-8.76-5.82,2.3-7.74,10-8,15.52-1.19,20.95,19.24,36.23,27.26,53.82,3.25,7.13,9.11,21.23.62,27.3-10.57,7.56-27.58-5.95-35.9-11.28" transform="translate(-148.59 -817.95)"/><path class="a" d="M509.16,1003c20.6-22,48-46.48,49.79-78.88,0.25-4.52.54-12.66-5.13-13.86-6.68-1.42-6.88,8.28-7,12.63-0.42,20.52,28,35.22,30.46,55.55,0.69,5.66-6,16.35-14.55,16.81-15.78.85-29.77-24.25-42-32.46" transform="translate(-148.59 -817.95)"/><path class="a" d="M606.49,914.62c-3.47,7.15-4.5,14.91-5.26,22.78-1.18,12.31-2.3,26.51,2.19,38.25,3.08,8.06,8.89,12.95,17.4,9,15.83-7.38,23-29.7,29.41-44.44" transform="translate(-148.59 -817.95)"/><path class="a" d="M651.46,911.23c0.38,10.72-1.07,21.59-1.21,32.32-0.1,7.88.05,15.77-.07,23.65,2.77-12.73,10.88-24.8,17.64-35,2.4-3.63,5-7.11,7.66-10.53,1.69-2.16,4.19-6.82,7.44-7.08,4.46,4.29,2.38,14.83,1.85,19.91-0.41,4-1,7.94-1.49,11.91a0.68,0.68,0,0,0,1.29.36,152.82,152.82,0,0,1,21.49-33.7c4.55-5.52,11.75-14,12.91-1.5,0.68,7.32-2.32,21.31,4.14,26.78,7.42,6.28,21.21,2.32,28.94-.36,18-6.22,32.81-19.47,47.24-31.38" transform="translate(-148.59 -817.95)"/><path class="a" d="M617.72,892.23a0.92,0.92,0,1,1,.14-0.13" transform="translate(-148.59 -817.95)"/><path class="a" d="M617.86,892.09l-0.14.13" transform="translate(-148.59 -817.95)"/><path class="a" d="M218.36,1238.33c-19-37.82,9.87-76.06,27-72.67,7,3.33,6.17,39.16,3.37,57-5.65,36.18-11.71,61.29-22,95.72" transform="translate(-148.59 -817.95)"/><path class="a" d="M184,1177.31c18-11.85,36.24-27,73.37-46.17,16.19-8.34,62.83-24.49,73.55-12.9,16.64,16.16-18,52.32-27.33,61.51-14.63,14.41-31.48,25-49.45,34.54" transform="translate(-148.59 -817.95)"/><path class="a" d="M266.45,1206.91c25.9-16.37,66.47-37.59,98.17-26.55,53.18,18.52-12.44,85.65-33.44,102-27,21.09-57.38,39-90,49.77-20.61,6.82-42.87,13.91-64.8,13.36-7.19-.18-17.94.81-21.63-6.06-5.16-9.6,8.4-23.51,19.95-24" transform="translate(-148.59 -817.95)"/><path class="a" d="M408,1228.19c2.11-5.21,4.21-8.35,8.78-10.8,10-3.59,20.89-3.91,31.11-6.57a48,48,0,0,0,12.83-4.67,22.64,22.64,0,0,0,10.41-9.41c1.87-7.66-7.77-8.54-13-8.79-12.43-.6-27.92,10.1-31.12,22.3-2.54,9.73-.68,19.86,7.46,26.67,12.76,10.67,33.06.79,42.61-8.75" transform="translate(-148.59 -817.95)"/><path class="a" d="M493.68,1171.49c0,21.48.33,35.22,0,56.7-0.94-16.06,5.09-35,14.39-48.08,1.76-2.48,6.08-8.42,9.72-9.28,4.34-1,5.24,3.13,6.14,6.39,3,10.94,1,23,1.83,34.23,0.21,2.83,1.19,4.26,4.16,3.56a21.51,21.51,0,0,0,9.06-8.49q4.8-6.89,9-14.16" transform="translate(-148.59 -817.95)"/><path class="a" d="M559.05,1166.95c-1-14.1,22.36-24.29,29.79-10.68,4.69,8.6,1.31,18.48-4.53,25.58-0.79,1-14.54,15.16-17.35,11.39,4.22-4.3,13.9-5.48,19.58-4.81,8.38,1,15.78,5,19.45,12.91,5.43,11.67.32,23.78-7.37,33.09-10,12.12-26.78,24.75-43.1,26.32-9,.87-20-0.83-19.94-12,0.08-13.85,16.08-22.33,26.48-28.51,16-9.5,36-16,49.42-29.23,7.34-7.24,17.85-16.69,21.18-27.85" transform="translate(-148.59 -817.95)"/><path class="a" d="M656.31,1136.46c-6.75,3.07-12.73,6.9-16.76,13.39-3.65,5.88-7.77,17.56-2.7,23.94,9.61,12.1,26.29-21.48,24.14-29.09-2.15,1.44-4,10.08-4,11.69,0.11,4.64-1.13,8,2.27,11.54,10.29,10.68,22.38-5.65,28.22-12.76" transform="translate(-148.59 -817.95)"/><path class="a" d="M685.8,1157.17c5.6-7.48,28.69-39.75,7.5-41.51-4.1-.34-13.55,1.66-14.6,6.88-1.35,6.7,15.43,2.83,18,2.31,4.74-1,11.49-3.78,16.34-2.87,4.66,0.88,3,5.46,2,9.3-2.46,9.14-6.35,17.77-8.09,27.12-0.41,2.2-1.79,5.13,1.21,6l5.82-.75a112.26,112.26,0,0,0,14-5.28" transform="translate(-148.59 -817.95)"/><path class="a" d="M751.86,1057.53c-5.7,27.65-9.8,55.14-10.83,83.41-0.2,5.64-2.3,21.16,4.42,24.61s15.38-6.38,19.46-10.23c9.64-9.09,14.19-15.32,22.43-25.69" transform="translate(-148.59 -817.95)"/><path class="a" d="M792.13,1113.59a78.17,78.17,0,0,0-4.79,16c-1,5.4-3,15-1.23,20.5,6.42,19.77,25.65-5.44,34.2-18.76" transform="translate(-148.59 -817.95)"/><path class="a" d="M798.72,1097.23a0.92,0.92,0,1,1,.14-0.13" transform="translate(-148.59 -817.95)"/><path class="a" d="M798.86,1097.09l-0.14.13" transform="translate(-148.59 -817.95)"/><path class="a" d="M395.81,1163.18c27.73-46.5,73.65-70,125.45-80.1,58.73-11.41,118.28-13.12,177.93-14,38.24-.58,80.21,3,117.86-6.15,10.57-2.57,23-8.26,27.21-19.23" transform="translate(-148.59 -817.95)"/></svg>